<svg width="128" height="128" xmlns="http://www.w3.org/2000/svg">
 <defs>
  <filter height="200%" width="200%" y="-50%" x="-50%" id="svg_23_blur">
   <feGaussianBlur stdDeviation="0" in="SourceGraphic"/>
  </filter>
 </defs>
 <g>
  <title>background</title>
  <rect fill="none" id="canvas_background" height="602" width="802" y="-1" x="-1"/>
 </g>
 <g>
  <title>Layer 1</title>
  <g id="svg_1" fill="#ffc1b6">
   <path id="svg_2" d="m83,29.3l-2.7,-3.8c-2.4,-3.4 -6.7,-4.7 -10.6,-3.2l-5.7,2.1l-5.7,-2.2c-3.9,-1.5 -8.2,-0.1 -10.6,3.2l-2.7,3.9l-6.2,2.5l0,8.2c0,1.6 0.2,3.2 0.5,4.7l1.5,6.9c0.8,3.6 1.3,7.5 2.7,11c4.6,11.3 17.5,16.7 28.8,12.1c5.5,-2.2 9.8,-6.6 12.1,-12.1c1.4,-3.5 1.9,-7.3 2.7,-11l1.5,-6.9c0.3,-1.5 0.5,-3.1 0.5,-4.7l0,-8.2l-6.1,-2.5z"/>
   <path id="svg_3" d="m89.9,38.6c-0.2,0 -0.5,0 -0.7,0.1l0,1.3c0,1.6 -0.2,3.2 -0.5,4.7l-1.5,7c3.5,1.5 7.5,-0.1 9,-3.5c1.5,-3.5 -0.1,-7.5 -3.5,-9c-1,-0.4 -1.9,-0.6 -2.8,-0.6z"/>
   <path id="svg_4" d="m39.3,44.7c-0.3,-1.5 -0.5,-3.1 -0.5,-4.7l0,-1.3c-3.7,-0.5 -7.2,2.1 -7.7,5.8s2.1,7.2 5.8,7.7c1.3,0.2 2.7,0 3.9,-0.6l-1.5,-6.9z"/>
  </g>
  <path id="svg_5" fill="#ff6e8c" d="m67.4,48.3l0,-2.1c0,-1.9 -1.5,-3.4 -3.4,-3.4c-1.9,0 -3.4,1.5 -3.4,3.4l0,2.1c-1.6,0 -2.9,1.3 -2.9,2.9l0,0.3c0,1.6 1.3,2.9 2.9,2.9l6.8,0c1.6,0 2.9,-1.3 2.9,-2.9l0,-0.3c0,-1.6 -1.3,-2.9 -2.9,-2.9z"/>
  <path id="svg_6" fill="#613d5c" d="m70.1,52.7c-0.5,1.1 -1.5,1.8 -2.7,1.8l-6.8,0c-1.2,0 -2.2,-0.7 -2.7,-1.8c-4.5,1.2 -7.6,5.2 -7.6,9.8l8.7,0c2,0 3.9,-1 5,-2.7c1.1,1.7 3,2.7 5,2.7l8.7,0c0,-4.6 -3.1,-8.6 -7.6,-9.8z"/>
  <path id="svg_7" fill="#613d5c" d="m76.7,1.7l-25.7,0c-11,0 -20,9 -20,20l0,23.7c0,-3.8 3,-6.8 6.7,-6.9c0.3,0 0.7,0 1,0.1l0,-6.9l6.2,-2.5l2.7,-3.8c2.4,-3.4 6.7,-4.7 10.6,-3.2l5.7,2.2l5.7,-2.2c3.9,-1.5 8.2,-0.1 10.6,3.2l2.7,3.8l6.2,2.5l0,6.9c0.2,0 0.5,0 0.7,-0.1c3.8,0 6.9,3.1 6.9,6.9l0,-23.7c0,-11 -8.9,-20 -20,-20z"/>
  <path id="svg_8" fill="#4b2746" d="m41.9,87c-2.1,0.2 -4.2,0.4 -6.3,0.5c-1.3,0.1 -2.6,0.2 -3.8,0.3l0,17.7l13.5,0.9l-5.5,8l8.6,11.9l15.6,0l-21,-39.4c-0.4,0.1 -0.7,0.1 -1.1,0.1z"/>
  <path id="svg_9" fill="#613d5c" d="m45.3,106.4l-13.5,-0.9l0,-17.7c-2.4,0.2 -4.7,0.6 -7,1.2c-9.8,2.7 -16.6,11.6 -16.6,21.8l0,15.5l40.2,0l-8.6,-11.9l5.5,-8z"/>
  <path id="svg_10" fill="#4b2746" d="m86.1,87c2.1,0.2 4.2,0.4 6.3,0.5c1.3,0.1 2.6,0.2 3.8,0.3l0,17.7l-13.5,0.9l5.5,8l-8.6,11.9l-15.6,0l21,-39.3l1.1,0z"/>
  <path id="svg_11" fill="#613d5c" d="m82.8,106.4l13.5,-0.9l0,-17.7c2.4,0.2 4.7,0.6 7,1.2c9.8,2.7 16.6,11.6 16.6,21.8l0,15.5l-40.2,0l8.6,-11.9l-5.5,-8z"/>
  <path id="svg_12" fill="#82d2ff" d="m48.4,83.8c-1.2,1.8 -3.2,3 -5.4,3.2l9.2,17.2l11.8,-9.9l-15.6,-10.5z"/>
  <path id="svg_13" fill="#82d2ff" d="m79.6,83.8c1.2,1.8 3.2,3 5.4,3.2l-9.2,17.2l-11.8,-9.9l15.6,-10.5z"/>
  <path id="svg_14" fill="#fff5e6" d="m52.1,104.1l11.9,22.1l11.8,-22.1l-11.8,-9.8l-11.9,9.8z"/>
  <path id="svg_15" fill="#ffff32" d="m64,94.3l-7.6,6.3l4.8,6.4l5.6,0l4.8,-6.4l-7.6,-6.3z"/>
  <path id="svg_16" fill="#ffc42b" d="m66.7,107l4.9,5.1l-7.6,14.1l-7.6,-14.1l4.8,-5.1l5.5,0z"/>
  <path id="svg_17" fill="#ffc1b6" d="m79.6,83.8c-0.6,-0.9 -1.1,-2 -1.4,-3.1l-1.1,-8.7c-7.8,5.7 -18.4,5.7 -26.2,0l-1.1,8.6c-0.3,1.1 -0.7,2.2 -1.4,3.1l15.6,10.6l15.6,-10.5z"/>
  <path id="svg_18" fill="#82d2ff" d="m70.8,33.4l8.2,0c2.2,0 4,1.8 4,4l0,4.9c0,2.2 -1.8,4 -4,4l-8.2,0c-2.2,0 -4,-1.8 -4,-4l0,-4.9c0,-2.2 1.7,-4 4,-4z"/>
  <path id="svg_19" fill="#82d2ff" d="m49,33.4l8.2,0c2.2,0 4,1.8 4,4l0,4.9c0,2.2 -1.8,4 -4,4l-8.2,0c-2.2,0 -4,-1.8 -4,-4l0,-4.9c0,-2.2 1.8,-4 4,-4z"/>
  <path id="svg_20" d="m90.9,10.3c-0.6,-0.8 -0.5,-1.9 0.3,-2.5s1.9,-0.5 2.5,0.3c1,1.2 1.9,2.6 2.6,4c0.4,0.9 0.1,1.9 -0.8,2.4c-0.9,0.4 -1.9,0.1 -2.4,-0.8c0,0 0,0 0,-0.1c-0.6,-1.1 -1.3,-2.3 -2.2,-3.3zm30.7,100.4l0,15.5c0,1 -0.8,1.7 -1.7,1.8l-111.8,0c-1,0 -1.7,-0.8 -1.8,-1.7l0,-15.5c0,-10.9 7.3,-20.5 17.9,-23.4c5,-1.3 7.6,-1.2 18.6,-2.1c2.7,-0.2 4.6,-2.2 5.2,-4.8l1,-7.5c-3.1,-2.5 -5.6,-5.8 -7.1,-9.6c-1.5,-4 -1.9,-6.7 -2.4,-9.4c-5.2,1.1 -10.2,-3 -10.2,-8.4l0,-23.8c0,-12.1 9.7,-21.8 21.7,-21.8l25.7,0c3.1,0 6.1,0.6 8.9,1.9c0.9,0.4 1.2,1.5 0.8,2.3c-0.4,0.9 -1.4,1.3 -2.2,0.9c-2.3,-1.1 -4.9,-1.6 -7.5,-1.6l-25.7,0c-10.1,0 -18.2,8.2 -18.3,18.3l0,16.8c1.3,-0.9 2.7,-1.5 4.3,-1.7l0,-5.1c0,-0.7 0.4,-1.4 1.1,-1.6l5.7,-2.3l2.4,-3.4c2.8,-4 8,-5.6 12.6,-3.9l5.1,1.9l5.1,-1.9c4.6,-1.8 9.8,-0.2 12.6,3.9l2.4,3.4l5.7,2.3c0.7,0.3 1.1,0.9 1.1,1.6l0,5.2c1.5,0.2 2.9,0.7 4,1.6l0,-16.8c0,-1 0.8,-1.8 1.8,-1.8s1.8,0.8 1.8,1.8l0,23.7c0,5.4 -4.9,9.4 -10,8.5c-0.5,2.7 -0.9,5.3 -2.4,9.3c-1.5,3.7 -4,7 -7.1,9.6c0,0 0.7,5.7 1,7.6c0.5,3.5 2.6,4.3 6.2,4.8c5.9,0.8 11.8,0.6 17.6,2c10.6,2.9 17.9,12.5 17.9,23.4zm-39,-6.1l11.9,-0.8l0,-14.3c-4.2,-0.3 -6.8,-0.5 -8.5,-0.7c-2,3.7 -17.3,32.4 -19.1,35.7l11.8,0l7.3,-10.1l-4.8,-7c-0.7,-1.1 0.1,-2.7 1.4,-2.8zm-35.9,2.8l-4.8,7l7.3,10.1l11.8,0l-19,-35.7c-3.9,0.4 -5.8,0.4 -8.5,0.7l0,14.5l11.9,0.8c1.3,-0.1 2.1,1.5 1.3,2.6zm12.1,-6.5l3.3,4.4l3.9,0l3.2,-4.3l-5.2,-4.4l-5.2,4.3zm-0.3,11.5l5.4,10.2l5.4,-10.2l-3.4,-3.6l-4,0l-3.4,3.6zm15.1,-7.8l-1.7,-1.4l-2.8,3.8l2.1,2.2l2.4,-4.6zm-19.2,-0.1l2.4,4.6l2.1,-2.2l-2.8,-3.8l-1.7,1.4zm24.7,-18.3l-12.2,8.3c6,4.9 8.3,7 8.3,7l7.3,-13.5c-1.3,-0.4 -2.4,-1 -3.4,-1.8zm11.8,-45.7c0,1.5 -0.2,3.1 -0.5,4.6l-1.2,5.4c2.9,0.5 5.8,-1.8 5.8,-5c0,-2.4 -1.7,-4.5 -4.1,-5zm-50.3,-7.5l0,5.1l2.7,0l0,-0.7c0,-3.2 2.6,-5.7 5.8,-5.8l8.2,0c3.2,0 5.7,2.6 5.8,5.7l0,3.7c0.7,-0.1 1.3,-0.1 2,0l0,-3.7c0,-3.2 2.6,-5.7 5.8,-5.8l8.1,0c3.2,0 5.7,2.6 5.8,5.8l0,0.7l2.7,0l0,-5l-5.1,-2.1c-0.3,-0.1 -0.6,-0.3 -0.8,-0.6l-2.7,-3.8c-1.9,-2.7 -5.4,-3.8 -8.5,-2.6l-5.8,2.1c-0.4,0.2 -0.8,0.2 -1.3,0l-5.7,-2.2c-3.1,-1.2 -6.6,-0.1 -8.5,2.6l-2.7,3.8c-0.2,0.3 -0.5,0.5 -0.8,0.6l-5,2.2zm11.6,27.8l6.8,0c1.4,0 2.8,-0.7 3.5,-1.9c0.7,-1 2.2,-1 2.9,0c0.8,1.2 2.1,1.9 3.5,1.9l6.8,0c-0.6,-2.7 -2.4,-4.9 -5,-6c-0.9,0.9 -2.1,1.5 -3.4,1.5l-6.8,0c-1.3,0 -2.5,-0.5 -3.4,-1.5c-2.4,1 -4.3,3.3 -4.9,6zm-5.4,-18.5c0,1.2 1,2.2 2.3,2.3l8.2,0c1.2,0 2.2,-1 2.3,-2.3l0,-4.9c0,-1.2 -1,-2.2 -2.3,-2.3l-8.3,0c-1.2,0 -2.2,1 -2.3,2.3l0,4.9l0.1,0zm17.2,2.2c-0.9,0 -1.7,0.7 -1.7,1.7l0,2.1c0,1 -0.8,1.7 -1.8,1.8c-1.6,0 -1.6,2.7 0,2.7l6.8,0c1.6,0 1.6,-2.7 0,-2.7c-1,0 -1.8,-0.8 -1.8,-1.8l0,-2.1c0.2,-0.9 -0.6,-1.7 -1.5,-1.7zm15,0.1c1.2,0 2.2,-1 2.3,-2.3l0,-4.9c0,-1.2 -1,-2.2 -2.3,-2.3l-8.2,0c-1.2,0 -2.2,1 -2.3,2.3l0,4.9c0,1.2 1,2.2 2.3,2.3l8.2,0zm-40.2,5.9l-1.2,-5.4c-0.3,-1.5 -0.5,-3.1 -0.5,-4.6c-2.8,0.4 -4.7,3 -4.2,5.8c0.4,2.8 3.1,4.7 5.9,4.2zm44,11.5c0.9,-2.6 1.6,-5.2 2.1,-8c0.7,-3.6 1,-4.5 2.1,-9.7c0.2,-0.9 0.3,-1.8 0.4,-2.7l-2.6,0l0,0.7c0,3.2 -2.6,5.7 -5.8,5.8l-8.1,0c1.4,1.6 1.2,3.3 1.2,3.5c4.4,1.8 7.3,6.2 7.3,11c0,1 -0.8,1.7 -1.7,1.8l-8.7,0c-1.8,0 -3.6,-0.6 -5,-1.8c-1.4,1.2 -3.2,1.8 -5,1.8l-8.7,0c-1,0 -1.8,-0.8 -1.8,-1.8c0,-4.8 2.9,-9.1 7.3,-11c0,-0.1 -0.2,-1.9 1.2,-3.5l-8,0c-3.2,0 -5.7,-2.6 -5.8,-5.8l0,-0.7l-2.6,0c0.1,0.9 0.2,1.8 0.4,2.7c1.7,7.8 1.4,6.3 2.1,9.7c0.4,2.7 1.1,5.4 2.1,8c6.7,16.4 30.7,17 37.6,0zm-37.2,26.1l7.1,13.3l10.2,-8.4c0.1,-0.1 3.8,-2.6 14.3,-9.7c-0.4,-0.8 -0.6,-1.6 -0.7,-2.4l-0.8,-5.9c-7.3,4.1 -16.1,4.1 -23.4,0l-0.7,5.9c0,0.3 -0.3,1.4 -0.8,2.4l5.5,3.7c0.8,0.5 1,1.6 0.5,2.4s-1.6,1 -2.4,0.5l-5.6,-3.8c-1,0.9 -2,1.6 -3.2,2zm-35.7,36.4l11.4,0l0,-13.3c0,-1 0.8,-1.8 1.8,-1.8s1.8,0.8 1.8,1.8l0,13.3l20.2,0l-6.6,-9.1c-0.4,-0.6 -0.4,-1.4 0,-2l3.8,-5.5l-10.4,-0.7c-0.9,-0.1 -1.6,-0.8 -1.6,-1.7l0,-15.8c-1.6,0.2 -3.2,0.5 -4.8,0.9c-9,2.5 -15.3,10.7 -15.3,20.1l0,13.8l-0.3,0zm108.2,-13.8c0,-9.4 -6.3,-17.6 -15.3,-20.1c-1.6,-0.4 -3.2,-0.7 -4.8,-0.8l0,15.7c0,0.9 -0.7,1.7 -1.6,1.7l-10.4,0.7l3.8,5.5c0.4,0.6 0.4,1.4 0,2l-6.6,9.1l20.2,0l0,-13.3c0,-1 0.8,-1.8 1.8,-1.8s1.8,0.8 1.8,1.8l0,13.3l11.4,0l0,-13.8l-0.3,0z"/>
  <ellipse ry="43.66189" rx="56.33793" id="svg_22" cy="69.91548" cx="62.7324" stroke-width="1.5" stroke="#000" fill="#ccffff"/>
  <text font-style="normal" font-weight="normal" filter="url(#svg_23_blur)" xml:space="preserve" text-anchor="start" font-family="Oswald, sans-serif" font-size="24" id="svg_23" y="80.61969" x="24.7043" fill-opacity="null" stroke-opacity="null" stroke-width="0" stroke="#000" fill="#000000">Default</text>
 </g>
</svg>